<svg xmlns="http://www.w3.org/2000/svg" data-name="Layer 1" viewBox="0 0 64 64"><path fill="#fff" d="M17.77 42.59h-4.16a2.81 2.81 0 0 1-2.82-2.81V26.45a2.81 2.81 0 0 1 2.82-2.81h4.16a2.81 2.81 0 0 1 2.81 2.81v13.33a2.81 2.81 0 0 1-2.81 2.81m-4.16-17a.82.82 0 0 0-.82.81v13.38a.82.82 0 0 0 .82.81h4.16a.81.81 0 0 0 .81-.81V26.45a.81.81 0 0 0-.81-.81Z"/><path fill="#fff" d="M9.78 60.61A3.09 3.09 0 0 1 7 56.26l3-6.69.86-9.91a1 1 0 0 1 1.08-.91 1 1 0 0 1 .91 1.08l-.87 10.08a1.2 1.2 0 0 1-.08.33l-3.11 6.84a1 1 0 0 0 .08 1 1 1 0 0 0 .91.5 1.07 1.07 0 0 0 1-.69l3.08-7.87.82-8.55a1 1 0 0 1 1.85-.42l4.85 8.08a1.1 1.1 0 0 1 .14.52v5.66a1 1 0 0 0 2 0v-6.9l-4.85-8.19a1 1 0 1 1 1.72-1l5 8.42a1 1 0 0 1 .14.51v7.18a3 3 0 0 1-6 0V50l-3.14-5.24-.54 5.67a.9.9 0 0 1-.07.27l-3.12 8a3.08 3.08 0 0 1-2.88 1.91m20.4-23h-.08l-6.78-.19a1 1 0 0 1-.72-.34l-3.77-4.31a1 1 0 0 1 .09-1.41 1 1 0 0 1 1.41.09l3.48 4 6.35.18a.64.64 0 0 0 .57-.22.78.78 0 0 0 .24-.57.8.8 0 0 0-.75-.8L25 33.75a1 1 0 0 1-.73-.38L18.38 26a1 1 0 0 1 .16-1.41 1 1 0 0 1 1.41.17l5.57 7.06 4.81.26a2.79 2.79 0 0 1-.15 5.58zm-20.95.74H7.7a3.57 3.57 0 0 1-3.57-3.56V24.66a3.57 3.57 0 0 1 3.57-3.57h1.53a3.57 3.57 0 0 1 3.56 3.57v1.83a1 1 0 1 1-2 0v-1.83a1.56 1.56 0 0 0-1.56-1.57H7.7a1.57 1.57 0 0 0-1.57 1.57v10.13a1.57 1.57 0 0 0 1.57 1.56h1.53a1.56 1.56 0 0 0 1.56-1.56 1 1 0 0 1 2 0 3.57 3.57 0 0 1-3.56 3.56m6.2-16.89a5.15 5.15 0 1 1 5.15-5.15 5.16 5.16 0 0 1-5.15 5.15m0-8.3a3.15 3.15 0 1 0 3.15 3.15 3.16 3.16 0 0 0-3.15-3.15"/><path fill="#fff" d="M28.8 54.29a1 1 0 0 1-1-1V36.57a1 1 0 0 1 2 0v16.72a1 1 0 0 1-1 1m0-20.29a1 1 0 0 1-1-1v-2a1 1 0 0 1 2 0v2a1 1 0 0 1-1 1m11.3 16.07a1 1 0 0 1-.3 0 62 62 0 0 0-8-2 1 1 0 1 1 .33-2 62 62 0 0 1 8.26 2 1 1 0 0 1-.3 2zM2 56.47a1 1 0 0 1-.58-.18 1 1 0 0 1-.24-1.4 20.5 20.5 0 0 1 5.16-4.61 1 1 0 0 1 1.39.29A1 1 0 0 1 7.44 52a18.1 18.1 0 0 0-4.62 4.1 1 1 0 0 1-.82.37"/><path fill="#fff" d="M33.49 59.56a1 1 0 0 1-.92-1.39c.07-.16 7.1-16.5 28.75-17.58a1 1 0 0 1 .1 2c-20.35 1-26.74 15.73-27 16.35a1 1 0 0 1-.93.62M26 22.65a1 1 0 0 1-.73-.31 1 1 0 0 1 0-1.42l14.1-13.4a1 1 0 0 1 .74-.27 1 1 0 0 1 .71.33L49 16.84a1 1 0 1 1-1.5 1.32L40 9.69 26.68 22.37a1 1 0 0 1-.68.28"/><path fill="#fff" d="M36.87 32a1 1 0 0 1-.66-.25 1 1 0 0 1-.09-1.41L55.64 8.13a1 1 0 0 1 .74-.34 1.08 1.08 0 0 1 .75.33l5.61 6.15a1 1 0 0 1-.07 1.42 1 1 0 0 1-1.41-.07l-4.86-5.33-18.78 21.34a1 1 0 0 1-.75.37"/><path fill="#fff" d="M41.18 27.07a1 1 0 0 1-.8-.39l-4.07-5.31a1 1 0 0 1 0-1.24l2.62-3.27L37.65 14a1 1 0 0 1 0-.69l1.49-5.14a1 1 0 0 1 1.24-.69A1 1 0 0 1 41 8.69l-1.39 4.8L41 16.6a1 1 0 0 1-.14 1l-2.51 3.14 3.6 4.7a1 1 0 0 1-.79 1.6zm17.71 1.65a1 1 0 0 1-.72-.31L55.91 26a1 1 0 0 1-.25-.89l1.28-5.95-2.44-2.82a1 1 0 0 1-.23-.82l1.1-6.72a1 1 0 1 1 2 .32l-1 6.27 2.46 2.85a1 1 0 0 1 .22.86L57.73 25l1.89 2a1 1 0 0 1-.73 1.68zM20.35 8.67h-.1a1 1 0 0 1-.9-1c0-1.79-2.54-2.29-2.57-2.3a1 1 0 1 1 .37-2 6.05 6.05 0 0 1 3.28 1.8 4.6 4.6 0 0 1 3.32-1.82 1 1 0 1 1 .16 2 3.11 3.11 0 0 0-2.58 2.48 1 1 0 0 1-.98.84m6.56 4.04h-.1a1 1 0 0 1-.9-1 1.55 1.55 0 0 0-1.19-1.48 1 1 0 0 1 .49-1.94A3.9 3.9 0 0 1 27 9.41a3.6 3.6 0 0 1 2.39-1.14 1 1 0 0 1 1.08.92 1 1 0 0 1-.92 1.07c-1.38.11-1.69 1.63-1.7 1.65a1 1 0 0 1-.94.8m22.63 39.93a1 1 0 0 1-.54-1.86 18.23 18.23 0 0 1 12.16-2.7 1 1 0 1 1-.26 2 16.3 16.3 0 0 0-10.87 2.43 1 1 0 0 1-.49.13M44 57.41a1 1 0 0 1-.61-.2 1 1 0 0 1-.18-1.41 19 19 0 0 1 1.54-1.68 1 1 0 1 1 1.4 1.43A19 19 0 0 0 44.76 57a1 1 0 0 1-.76.41"/></svg>